<?xml version="1.0" encoding="utf-8"?>
<!-- Generator: Adobe Illustrator 19.2.1, SVG Export Plug-In . SVG Version: 6.00 Build 0)  -->
<svg version="1.1" id="logo_-_color_1_" xmlns="http://www.w3.org/2000/svg" xmlns:xlink="http://www.w3.org/1999/xlink" x="0px"
	 y="0px" viewBox="0 0 5137.1 896" style="enable-background:new 0 0 5137.1 896;" xml:space="preserve">
<style type="text/css">
	.st0{fill:#DF283F;}
	.st1{fill:#1C4A87;}
	.st2{fill:#128669;}
	.st3{fill:#1D8DCD;}
</style>
<g>
	<g>
		<path class="st0" d="M103.4,314c-4.7-4.8-10.4-7.2-15.8-7.2c-7,0-13.8,3.8-18.2,11.2l-31.7,52.8L5.9,423.7
			c-7.9,13.2-7.9,34.8,0,48l31.7,52.8l31.7,52.8c4.4,7.4,11.2,11.2,18.2,11.2c5.5,0,11.1-2.4,15.8-7.2c0,0,65.2-66.3,67.3-130.6
			c0-1,0.1-2.1,0.1-3.1c0-1,0-2.1-0.1-3.1C168.6,380.3,103.4,314,103.4,314z"/>
		<path class="st1" d="M1052.3,423.7l-31.7-52.8l-31.7-52.8c-4.4-7.4-11.2-11.2-18.2-11.2c-5.5,0-11.1,2.4-15.8,7.2
			c0,0-65.2,66.3-67.3,130.6c0,1-0.1,2.1-0.1,3.1c0,1,0,2.1,0.1,3.1c2.1,64.3,67.3,130.6,67.3,130.6c4.7,4.8,10.4,7.2,15.8,7.2
			c7,0,13.7-3.8,18.2-11.2l31.7-52.8l31.7-52.8C1060.3,458.5,1060.3,436.9,1052.3,423.7z"/>
		<path class="st1" d="M685.9,447.7c0-86.6-70.2-156.8-156.8-156.8s-156.8,70.2-156.8,156.8c0,86.6,70.2,156.8,156.8,156.8
			S685.9,534.3,685.9,447.7z"/>
		<path class="st2" d="M797.9,179c1.3,0,2.5-0.1,3.8-0.1c32.3-1,62.7-14.3,62.7-14.3c14.1-6.2,19.2-22,11.3-35.2L844,76.6
			l-31.7-52.7C804.4,10.7,785.3,0,769.9,0H646.7c-15.4,0-22.9,11.4-16.6,25.4C630.2,25.4,699,179,797.9,179z"/>
		<path class="st1" d="M193.8,164.6c0,0,30.4,13.2,62.7,14.2c1.3,0,2.5,0.1,3.8,0.1c99,0,167.8-153.6,167.8-153.6
			C434.4,11.4,426.9,0,411.5,0H288.3c-15.4,0-34.5,10.7-42.4,23.9l-31.7,52.8l-31.7,52.8C174.6,142.6,179.7,158.5,193.8,164.6z"/>
		<path class="st3" d="M864.5,730.9c0,0-30.4-13.3-62.7-14.3c-1.3,0-2.5-0.1-3.8-0.1c-99,0-167.8,153.8-167.8,153.8
			c-6.3,14.1,1.2,25.7,16.6,25.7h123.2c15.4,0,34.5-10.9,42.4-24.1L844,819l31.7-52.9C883.7,752.9,878.6,737,864.5,730.9z"/>
		<path class="st1" d="M260.3,716.6c-1.3,0-2.5,0-3.8,0c-32.3,1-62.7,14.2-62.7,14.2c-14.1,6.2-19.2,22-11.3,35.2l31.7,52.8l31.7,53
			c7.9,13.2,27,24.1,42.4,24.1h123.2c15.4,0,22.9-11.6,16.6-25.7C428.1,870.3,359.3,716.6,260.3,716.6z"/>
	</g>
	<g>
		<path class="st0" d="M1912.8,203.6c-67.1-65.5-150.1-98.3-248.9-98.3S1482.1,138,1415,203.6c-67.1,65.5-100.7,147.2-100.7,245.1
			c0,97.9,33.6,179.5,100.7,245.1c67.1,65.5,150.1,98.3,248.9,98.3s181.8-32.8,248.9-98.3c67.1-65.6,100.7-147.2,100.7-245.1
			C2013.5,350.8,1979.9,269.1,1912.8,203.6z M1898.6,448.7c0,66.8-22.7,123.7-67.9,170.5c-45.3,46.9-100.9,70.3-166.7,70.3
			c-65.9,0-121.5-23.4-166.7-70.3c-45.3-46.9-67.9-103.7-67.9-170.5c0-66.8,22.6-123.6,67.9-170.5c45.3-46.9,100.8-70.3,166.7-70.3
			c65.9,0,121.4,23.4,166.7,70.3C1875.9,325,1898.6,381.8,1898.6,448.7z"/>
		<polygon class="st2" points="2739.3,128 2538.8,545.1 2338.4,128 2163,128 2163,792 2275,792 2275,273.4 2506.5,734 2569.2,734 
			2801,273.4 2801,792 2913,792 2913,128 		"/>
		<polygon class="st3" points="3234,687 3234,509 3552,509 3552,409 3234,409 3234,233 3588,233 3588,128 3122,128 3122,792 
			3600,792 3600,687 		"/>
		<path class="st1" d="M4157.6,550.7c95.6-28.5,143.4-97.5,143.4-207.1c0-75.4-21.9-130.2-65.5-164.4S4119.3,128,4018,128h-248v664
			h113V569h147.3L4189,792h142.5L4157.6,550.7z M3883,230h142.6c60.2,0,102,7.9,125.4,24.1c23.4,16.1,35.1,45.8,35.1,89.2
			c0,43.4-11.4,74.8-34.2,94.4c-22.8,19.6-65.9,29.3-129.2,29.3H3883V230z"/>
		<path class="st1" d="M5036.4,203.6c-67.1-65.5-150.1-98.3-248.9-98.3c-98.8,0-181.8,32.8-248.9,98.3
			c-67.1,65.5-100.7,147.2-100.7,245.1c0,97.9,33.6,179.5,100.7,245.1c67.1,65.5,150.1,98.3,248.9,98.3
			c98.8,0,181.8-32.8,248.9-98.3c67.1-65.6,100.7-147.2,100.7-245.1C5137.1,350.8,5103.5,269.1,5036.4,203.6z M5022.1,448.7
			c0,66.8-22.7,123.7-67.9,170.5c-45.3,46.9-100.9,70.3-166.7,70.3c-65.9,0-121.5-23.4-166.7-70.3c-45.3-46.9-67.9-103.7-67.9-170.5
			c0-66.8,22.6-123.6,67.9-170.5c45.3-46.9,100.8-70.3,166.7-70.3c65.9,0,121.4,23.4,166.7,70.3
			C4999.5,325,5022.1,381.8,5022.1,448.7z"/>
	</g>
</g>
</svg>
